<?xml version="1.0" standalone="no"?>
<!DOCTYPE svg PUBLIC "-//W3C//DTD SVG 20010904//EN"
 "http://www.w3.org/TR/2001/REC-SVG-20010904/DTD/svg10.dtd">
<svg version="1.0" xmlns="http://www.w3.org/2000/svg"
 width="500.000000pt" height="500.000000pt" viewBox="0 0 500.000000 500.000000"
 preserveAspectRatio="xMidYMid meet">
<metadata>
Created by potrace 1.11, written by Peter Selinger 2001-2013
</metadata>
<g transform="translate(0.000000,500.000000) scale(0.100000,-0.100000)"
fill="#000000" stroke="none">
<path d="M230 2500 l0 -800 2285 0 2285 0 0 800 0 800 -2285 0 -2285 0 0 -800z
m2560 0 l0 -730 -1250 0 -1250 0 0 730 0 730 1250 0 1250 0 0 -730z m1940 0
l0 -730 -940 0 -940 0 0 730 0 730 940 0 940 0 0 -730z"/>
<path d="M1335 3001 c-182 -84 -158 -357 35 -407 80 -21 141 -4 200 55 80 80
90 185 27 278 -59 86 -169 117 -262 74z m173 -69 c85 -61 81 -200 -8 -260 -29
-20 -44 -23 -89 -19 -48 3 -59 9 -93 45 -35 38 -38 46 -38 100 0 70 26 117 80
145 44 23 107 18 148 -11z"/>
<path d="M510 2800 l0 -210 30 0 30 0 0 95 0 94 78 3 77 3 0 30 0 30 -75 1
-75 1 -3 52 -3 51 80 0 81 0 0 30 0 30 -110 0 -110 0 0 -210z"/>
<path d="M850 2800 l0 -210 30 0 30 0 0 85 c0 113 15 113 95 0 57 -80 62 -85
98 -85 20 0 37 2 37 5 0 2 -27 40 -60 84 -33 44 -60 82 -60 85 0 4 6 6 14 6 8
0 28 16 45 35 36 41 42 96 16 145 -24 46 -62 60 -160 60 l-85 0 0 -210z m179
124 c27 -34 26 -50 -4 -79 -18 -19 -35 -25 -70 -25 l-45 0 0 65 0 65 49 0 c42
0 53 -4 70 -26z"/>
<path d="M1750 2801 l0 -211 35 0 35 0 0 153 c1 120 3 148 12 132 7 -11 56
-80 110 -152 139 -189 138 -189 138 77 l0 210 -30 0 -29 0 -3 -141 -3 -142
-101 139 c-89 123 -105 139 -133 142 l-31 3 0 -210z"/>
<path d="M2180 2980 c0 -29 1 -30 50 -30 l50 0 0 -180 0 -180 35 0 35 0 0 180
0 180 50 0 c49 0 50 1 50 30 l0 30 -135 0 -135 0 0 -30z"/>
<path d="M820 2382 c0 -17 55 -342 65 -390 5 -19 11 -23 36 -20 29 3 33 9 78
118 26 63 51 124 55 135 5 15 20 -12 62 -115 30 -73 54 -135 54 -137 0 -3 15
-3 33 -1 l32 3 31 176 c49 281 48 249 9 249 -33 0 -33 -1 -44 -62 -6 -35 -17
-102 -23 -150 -7 -49 -16 -88 -20 -88 -4 0 -8 5 -8 11 0 6 -23 69 -52 140 -37
92 -56 129 -67 127 -14 -3 -47 -74 -100 -216 l-28 -74 -22 139 c-12 76 -25
146 -27 156 -7 24 -64 24 -64 -1z"/>
<path d="M1415 2388 c-3 -8 -4 -103 -3 -213 l3 -200 120 0 120 0 3 33 3 32
-90 0 -91 0 0 65 0 65 85 0 85 0 0 30 0 30 -85 0 -85 0 0 50 0 49 88 3 87 3 0
30 0 30 -118 3 c-90 2 -119 0 -122 -10z"/>
<path d="M1782 2188 l3 -213 118 -3 117 -3 0 36 0 35 -85 0 -85 0 0 65 0 65
85 0 85 0 0 30 0 30 -85 0 -85 0 0 50 0 50 85 0 85 0 0 35 0 35 -120 0 -120 0
2 -212z"/>
<path d="M2150 2185 l0 -216 33 3 32 3 0 93 c0 50 2 92 5 91 3 0 39 -42 80
-92 69 -84 79 -92 114 -95 23 -2 37 1 35 7 -2 6 -41 55 -86 110 -46 55 -83
103 -83 108 0 5 36 49 80 98 44 50 80 93 80 98 0 4 -16 7 -36 7 -31 0 -43 -8
-82 -52 -26 -29 -61 -68 -77 -86 l-31 -34 1 83 0 84 -32 3 -33 3 0 -216z"/>
<path d="M3250 2505 l0 -215 120 0 120 0 0 35 0 35 -85 0 -85 0 0 65 0 65 85
0 85 0 0 30 0 30 -85 0 -85 0 0 50 0 50 85 0 85 0 0 35 0 35 -120 0 -120 0 0
-215z"/>
<path d="M3620 2505 l0 -215 30 0 29 0 3 152 3 152 94 -129 c115 -158 129
-175 153 -175 17 0 18 14 18 216 l0 215 -32 -3 -33 -3 0 -143 c0 -129 -1 -141
-15 -124 -8 11 -57 76 -107 146 -76 103 -97 126 -118 126 l-25 0 0 -215z"/>
<path d="M4084 2707 c-2 -7 -3 -102 -2 -212 l3 -200 80 1 c130 1 199 36 236
119 56 121 -15 267 -143 295 -69 14 -167 13 -174 -3z m190 -71 c96 -40 113
-179 30 -243 -27 -20 -50 -28 -95 -31 l-59 -4 0 146 0 146 45 0 c25 0 60 -6
79 -14z"/>
</g>
</svg>
